<?xml version="1.0" encoding="UTF-8"?>
<svg version="1.1" xmlns="http://www.w3.org/2000/svg" width="320" height="177">
<path d="M0 0 C0 0.66 0 1.32 0 2 C0.99 2.33 1.98 2.66 3 3 C3 3.66 3 4.32 3 5 C3.99 5 4.98 5 6 5 C6.99 9.95 6.99 9.95 8 15 C8.99 15.33 9.98 15.66 11 16 C11.02505615 16.81041748 11.0501123 17.62083496 11.07592773 18.45581055 C11.17237738 21.52929554 11.27150604 24.60268051 11.37231445 27.67602539 C11.43575206 29.63356265 11.49623818 31.59119486 11.55664062 33.54882812 C11.82709067 41.72474093 12.31636132 49.84803958 13 58 C21.25 58.33 29.5 58.66 38 59 C38 64.28 38 69.56 38 75 C29.30190746 75.63839211 20.7262349 76.16327674 12 76 C12 76.99 12 77.98 12 79 C11.01 79.495 11.01 79.495 10 80 C9.505 81.98 9.505 81.98 9 84 C1.575 84.99 1.575 84.99 -6 86 C-1.71 86.33 2.58 86.66 7 87 C5.82150225 91.713991 3.51950947 93.99650688 0.25 97.375 C-1.33162833 99.03415913 -2.90848597 100.69656075 -4.47070312 102.37402344 C-5.48349534 103.45084275 -6.51882652 104.50693273 -7.57617188 105.54003906 C-9.23425842 107.1798255 -9.23425842 107.1798255 -11 110 C-9.92820381 114.70620485 -7.63777678 118.56744379 -5.0859375 122.60546875 C-4.5241832 123.51429558 -4.5241832 123.51429558 -3.95108032 124.44148254 C-2.36113996 127.01362056 -0.75703191 129.57681391 0.84667969 132.14038086 C2.0204188 134.02125747 3.18619898 135.90689545 4.3515625 137.79296875 C5.40077881 139.47169067 5.40077881 139.47169067 6.47119141 141.18432617 C8 144 8 144 8 147 C-10.72618098 148.45947454 -10.72618098 148.45947454 -15.51953125 145.3828125 C-17.071257 142.98041616 -18.02144773 140.68622191 -19 138 C-20.10259107 135.96685335 -21.22777265 133.94579822 -22.375 131.9375 C-23.25426898 130.29394336 -24.13084554 128.6489278 -25 127 C-28.28560634 129.49706082 -28.95805055 130.73216888 -29.609375 134.890625 C-29.67887665 136.34284367 -29.72126815 137.79640308 -29.75 139.25 C-29.8325 141.8075 -29.915 144.365 -30 147 C-36.27 147 -42.54 147 -49 147 C-49 127.2 -49 107.4 -49 87 C-48.01 86.67 -47.02 86.34 -46 86 C-46.33 85.01 -46.66 84.02 -47 83 C-47.99 83 -48.98 83 -50 83 C-50 82.34 -50 81.68 -50 81 C-53.81576311 79.79794907 -57.64622833 79.7779434 -61.609375 79.68359375 C-62.25406738 79.66494263 -62.89875977 79.6462915 -63.56298828 79.6270752 C-65.95852681 79.55906173 -68.35427854 79.49873213 -70.75 79.4375 C-78.79375 79.2209375 -78.79375 79.2209375 -87 79 C-87 59.53 -87 40.06 -87 20 C-71.16 20 -55.32 20 -39 20 C-39 25.28 -39 30.56 -39 36 C-48.57 36 -58.14 36 -68 36 C-68 37.65 -68 39.3 -68 41 C-67.24380371 40.99476318 -66.48760742 40.98952637 -65.70849609 40.98413086 C-62.26400593 40.96327276 -58.8195291 40.95031174 -55.375 40.9375 C-53.59029297 40.92493164 -53.59029297 40.92493164 -51.76953125 40.91210938 C-50.61582031 40.90888672 -49.46210938 40.90566406 -48.2734375 40.90234375 C-46.68668213 40.89448853 -46.68668213 40.89448853 -45.06787109 40.88647461 C-41.96637654 41.00124422 -39.04652343 41.42303718 -36 42 C-36.09087891 41.31486328 -36.18175781 40.62972656 -36.27539062 39.92382812 C-36.68890683 36.7832256 -37.09450819 33.64164824 -37.5 30.5 C-37.64308594 29.42234375 -37.78617188 28.3446875 -37.93359375 27.234375 C-38.67382699 21.45350588 -39.3655331 15.82822223 -39 10 C-37.125 7.6875 -37.125 7.6875 -35 6 C-34.34 5.01 -33.68 4.02 -33 3 C-30.8203125 2.3840332 -30.8203125 2.3840332 -28.125 2.05078125 C-26.64580078 1.86225586 -26.64580078 1.86225586 -25.13671875 1.66992188 C-24.10160156 1.55197266 -23.06648438 1.43402344 -22 1.3125 C-20.99582031 1.18294922 -19.99164063 1.05339844 -18.95703125 0.91992188 C-12.60850197 0.14380801 -6.39301152 -0.167074 0 0 Z M-10.7890625 4.5234375 C-11.89507812 4.6575 -13.00109375 4.7915625 -14.140625 4.9296875 C-15.29046875 5.07664062 -16.4403125 5.22359375 -17.625 5.375 C-18.78257812 5.51421875 -19.94015625 5.6534375 -21.1328125 5.796875 C-26.73719841 6.2837421 -26.73719841 6.2837421 -32 8 C-32 8.99 -32 9.98 -32 11 C-32.99 11.33 -33.98 11.66 -35 12 C-33.68 22.23 -32.36 32.46 -31 43 C-31.99 43 -32.98 43 -34 43 C-34 43.99 -34 44.98 -34 46 C-41.425 46.99 -41.425 46.99 -49 48 C-49 49.32 -49 50.64 -49 52 C-49.99 52 -50.98 52 -52 52 C-51.69106634 55.3753363 -51.37721367 58.75019811 -51.0625 62.125 C-50.97548828 63.07632813 -50.88847656 64.02765625 -50.79882812 65.0078125 C-50.35804822 69.70946481 -49.86831805 74.35332502 -49 79 C-48.01 79 -47.02 79 -46 79 C-45.67 79.99 -45.34 80.98 -45 82 C-38.05520788 81.24463981 -31.11409456 80.46058117 -24.17480469 79.65625 C-21.81260225 79.38591266 -19.44963037 79.12221423 -17.0859375 78.86523438 C-13.69307982 78.49520795 -10.30368411 78.10157822 -6.9140625 77.703125 C-5.85256989 77.59252747 -4.79107727 77.48192993 -3.69741821 77.36798096 C-2.71655243 77.24815857 -1.73568665 77.12833618 -0.72509766 77.00488281 C0.14094086 76.9071759 1.00697937 76.80946899 1.89926147 76.70880127 C4.15356528 76.18328736 4.15356528 76.18328736 5.29005432 74.10749817 C6.26162163 71.22336718 6.05988204 68.97138149 5.81640625 65.93359375 C5.74106407 64.98074745 5.74106407 64.98074745 5.66419983 64.00865173 C4.70415315 52.66755406 3.27129726 41.36402941 1.9375 30.0625 C1.65265706 27.6256905 1.36814916 25.1888418 1.08398438 22.75195312 C0.39318462 16.83417811 -0.30174786 10.91690007 -1 5 C-4.51725988 4.02155297 -7.14595558 4.07579457 -10.7890625 4.5234375 Z M-68 58 C-68 59.65 -68 61.3 -68 63 C-64.04 63 -60.08 63 -56 63 C-56 61.35 -56 59.7 -56 58 C-60.3164922 57.23826608 -63.74433453 56.83936396 -68 58 Z M-30 88 C-30 93.61 -30 99.22 -30 105 C-26.66757881 101.66757881 -23.41943374 98.35286857 -20.25 94.875 C-19.08210938 93.60269531 -19.08210938 93.60269531 -17.890625 92.3046875 C-15.82283785 90.06384899 -15.82283785 90.06384899 -15 87 C-20.29481709 86.90710847 -24.64210878 87.23458697 -30 88 Z " fill="#FEFEFE" transform="translate(282,15)"/>
<path d="M0 0 C3.3 0 6.6 0 10 0 C10.495 1.485 10.495 1.485 11 3 C13.31 3 15.62 3 18 3 C18 3.99 18 4.98 18 6 C18.99 6 19.98 6 21 6 C21.66 8.31 22.32 10.62 23 13 C24.32 13 25.64 13 27 13 C27 15.31 27 17.62 27 20 C27.99 20 28.98 20 30 20 C30 23.3 30 26.6 30 30 C29.01 30.33 28.02 30.66 27 31 C27 32.65 27 34.3 27 36 C25.02 36.495 25.02 36.495 23 37 C23 38.98 23 40.96 23 43 C22.34 43 21.68 43 21 43 C21.32798584 43.87736816 21.65597168 44.75473633 21.99389648 45.65869141 C23.21517754 48.93348264 24.43157724 52.21000302 25.64477539 55.48779297 C26.16953985 56.90257218 26.69620604 58.3166476 27.22485352 59.72998047 C27.98702298 61.76865809 28.74218108 63.8098193 29.49609375 65.8515625 C30.17949829 67.68968506 30.17949829 67.68968506 30.87670898 69.56494141 C31.91096496 72.72772811 32.55713112 75.70822829 33 79 C33.93714844 79.03738281 34.87429687 79.07476562 35.83984375 79.11328125 C45.08660842 79.54211671 54.2457808 80.40312195 63.4375 81.5 C64.54536865 81.63059814 65.6532373 81.76119629 66.79467773 81.89575195 C74.74407397 82.87203699 74.74407397 82.87203699 77 84 C77.125 91.625 77.125 91.625 76 95 C75.01 95 74.02 95 73 95 C72.67 99.62 72.34 104.24 72 109 C70.68 109.33 69.36 109.66 68 110 C68 110.99 68 111.98 68 113 C67.01 113 66.02 113 65 113 C64.505 114.485 64.505 114.485 64 116 C63.34 116 62.68 116 62 116 C62.45439453 117.24088379 62.45439453 117.24088379 62.91796875 118.50683594 C64.04126122 121.58379324 65.15877479 124.66272333 66.27246094 127.74316406 C66.75519303 129.07472709 67.24019864 130.40546823 67.72753906 131.73535156 C68.4285583 133.64956329 69.12128701 135.56660393 69.8125 137.484375 C70.23144531 138.63647461 70.65039062 139.78857422 71.08203125 140.97558594 C72 144 72 144 72 148 C70.35 148 68.7 148 67 148 C66.67 149.65 66.34 151.3 66 153 C66.99 153.33 67.98 153.66 69 154 C68.67 156.97 68.34 159.94 68 163 C58.13497007 163.27383776 48.66809527 162.60037894 38.8996582 161.34594727 C36.64583133 161.05716093 34.39057222 160.78261612 32.13476562 160.50976562 C21.14692769 159.14692769 21.14692769 159.14692769 20 158 C19.76119403 150.47761194 19.76119403 150.47761194 21 148 C17.37 148 13.74 148 10 148 C11.40627747 140.84224209 13.58055222 134.22800257 16.1328125 127.40234375 C16.52951141 126.32747208 16.92621033 125.2526004 17.33493042 124.14515686 C18.5928587 120.74056649 19.85879221 117.33901864 21.125 113.9375 C21.9836051 111.61803547 22.84168349 109.2983759 23.69921875 106.97851562 C25.79339116 101.31673975 27.89412946 95.6574345 30 90 C29.34 90 28.68 90 28 90 C27.9729957 88.54176788 27.95360213 87.08339325 27.9375 85.625 C27.92589844 84.81289062 27.91429687 84.00078125 27.90234375 83.1640625 C28 81 28 81 29 79 C28.03578125 79.04640625 27.0715625 79.0928125 26.078125 79.140625 C24.81484375 79.17671875 23.5515625 79.2128125 22.25 79.25 C20.99703125 79.29640625 19.7440625 79.3428125 18.453125 79.390625 C15 79 15 79 12.546875 76.984375 C12.03640625 76.32953125 11.5259375 75.6746875 11 75 C10.505 76.485 10.505 76.485 10 78 C6.7 78 3.4 78 0 78 C0 77.01 0 76.02 0 75 C-1.32 75 -2.64 75 -4 75 C-4 73.35 -4 71.7 -4 70 C1.28 70 6.56 70 12 70 C12 68.68 12 67.36 12 66 C7.38 66 2.76 66 -2 66 C-2 66.99 -2 67.98 -2 69 C-3.65 69 -5.3 69 -7 69 C-7.99 72.3 -8.98 75.6 -10 79 C-16.27 79 -22.54 79 -29 79 C-28.30987039 74.16909272 -27.78141326 70.87394986 -26.15234375 66.50390625 C-25.61577148 65.04887695 -25.61577148 65.04887695 -25.06835938 63.56445312 C-24.69517578 62.57380859 -24.32199219 61.58316406 -23.9375 60.5625 C-23.56044922 59.54478516 -23.18339844 58.52707031 -22.79492188 57.47851562 C-21.86946564 54.98329819 -20.93769349 52.49063881 -20 50 C-21.32 50 -22.64 50 -24 50 C-24 48.68 -24 47.36 -24 46 C-23.01 46 -22.02 46 -21 46 C-21 44.35 -21 42.7 -21 41 C-19.35 41 -17.7 41 -16 41 C-16 37.7 -16 34.4 -16 31 C-16.99 31 -17.98 31 -19 31 C-19 27.37 -19 23.74 -19 20 C-18.01 20 -17.02 20 -16 20 C-16 17.69 -16 15.38 -16 13 C-15.01 13 -14.02 13 -13 13 C-13 12.01 -13 11.02 -13 10 C-12.01 10 -11.02 10 -10 10 C-10 8.68 -10 7.36 -10 6 C-9.01 6 -8.02 6 -7 6 C-7 5.01 -7 4.02 -7 3 C-4.69 3 -2.38 3 0 3 C0 2.01 0 1.02 0 0 Z M2 5 C1.67 5.66 1.34 6.32 1 7 C-2.0625 7.625 -2.0625 7.625 -5 8 C-5 9.32 -5 10.64 -5 12 C-5.99 12 -6.98 12 -8 12 C-8.33 12.66 -8.66 13.32 -9 14 C-9.99 14.33 -10.98 14.66 -12 15 C-12 16.98 -12 18.96 -12 21 C-12.99 21 -13.98 21 -15 21 C-15 23.64 -15 26.28 -15 29 C-14.01 29 -13.02 29 -12 29 C-12 30.98 -12 32.96 -12 35 C-10.68 35 -9.36 35 -8 35 C-8 36.98 -8 38.96 -8 41 C-7.34 41.33 -6.68 41.66 -6 42 C-5.375 44.0625 -5.375 44.0625 -5 46 C-4.01 46 -3.02 46 -2 46 C-2 46.66 -2 47.32 -2 48 C-0.68 48 0.64 48 2 48 C2.33 42.39 2.66 36.78 3 31 C1.35 31 -0.3 31 -2 31 C-2 29.68 -2 28.36 -2 27 C2.29 27 6.58 27 11 27 C11 28.32 11 29.64 11 31 C9.68 31 8.36 31 7 31 C7 36.61 7 42.22 7 48 C8.65 48 10.3 48 12 48 C12 47.34 12 46.68 12 46 C13.32 46 14.64 46 16 46 C16 44.35 16 42.7 16 41 C16.99 41 17.98 41 19 41 C19 39.02 19 37.04 19 35 C19.66 35 20.32 35 21 35 C21.33 33.35 21.66 31.7 22 30 C22.99 29.67 23.98 29.34 25 29 C25 26.36 25 23.72 25 21 C23.68 21 22.36 21 21 21 C21 19.02 21 17.04 21 15 C20.34 15 19.68 15 19 15 C19 14.01 19 13.02 19 12 C18.01 12 17.02 12 16 12 C16 10.68 16 9.36 16 8 C15.030625 7.87625 14.06125 7.7525 13.0625 7.625 C12.051875 7.41875 11.04125 7.2125 10 7 C9.67 6.34 9.34 5.68 9 5 C6.69 5 4.38 5 2 5 Z M-2 56 C-2 57.32 -2 58.64 -2 60 C2.29 60 6.58 60 11 60 C11 58.68 11 57.36 11 56 C6.71 56 2.42 56 -2 56 Z M36 84 C36 84.33 36 84.66 36 85 C40.21719234 85.57218379 44.43472373 86.14177931 48.65258789 86.70898438 C50.08725414 86.90228404 51.52182552 87.09628926 52.95629883 87.29101562 C55.01879704 87.57087 57.08162373 87.84818101 59.14453125 88.125 C61.00621948 88.37636719 61.00621948 88.37636719 62.90551758 88.6328125 C65.97715155 89.05891607 65.97715155 89.05891607 69 89 C69 88.34 69 87.68 69 87 C65.00097233 86.4920154 61.00064616 85.99506324 57 85.5 C55.87464844 85.35691406 54.74929687 85.21382813 53.58984375 85.06640625 C47.676703 84.34023107 41.95736399 83.82478341 36 84 Z M35 91 C34.7506643 92.60115576 34.52621352 94.20620159 34.3125 95.8125 C34.18488281 96.70582031 34.05726562 97.59914063 33.92578125 98.51953125 C33.76465173 101.04662752 33.76465173 101.04662752 35.35546875 102.82421875 C36.93422088 104.1938679 36.93422088 104.1938679 39 104 C39 105.65 39 107.3 39 109 C40.32 109 41.64 109 43 109 C43 109.99 43 110.98 43 112 C43.66 112 44.32 112 45 112 C47.02558881 115.34939881 47.21738987 117.86962551 47.125 121.75 C47.10695313 122.73484375 47.08890625 123.7196875 47.0703125 124.734375 C47.04710937 125.48203125 47.02390625 126.2296875 47 127 C46.01 127 45.02 127 44 127 C43.67 127.66 43.34 128.32 43 129 C41.515 129.495 41.515 129.495 40 130 C40 130.66 40 131.32 40 132 C38.68 132 37.36 132 36 132 C36 132.99 36 133.98 36 135 C35.01 135 34.02 135 33 135 C33 135.66 33 136.32 33 137 C31.02 137.495 31.02 137.495 29 138 C28.67 141.63 28.34 145.26 28 149 C29.65 149 31.3 149 33 149 C33 148.01 33 147.02 33 146 C34.32 146.33 35.64 146.66 37 147 C37 146.01 37 145.02 37 144 C37.99 144 38.98 144 40 144 C40.66 143.01 41.32 142.02 42 141 C43.485 140.505 43.485 140.505 45 140 C45 141.65 45 143.3 45 145 C45.66 143.68 46.32 142.36 47 141 C48.32 141 49.64 141 51 141 C51 142.32 51 143.64 51 145 C51.66 145.33 52.32 145.66 53 146 C53 146.99 53 147.98 53 149 C54.32 149 55.64 149 57 149 C57 149.99 57 150.98 57 152 C58.65 152 60.3 152 62 152 C62.33 148.37 62.66 144.74 63 141 C62.01 141 61.02 141 60 141 C60 140.01 60 139.02 60 138 C59.34 138 58.68 138 58 138 C57.67 136.68 57.34 135.36 57 134 C56.01 134 55.02 134 54 134 C54 133.01 54 132.02 54 131 C53.34 131 52.68 131 52 131 C51.67 130.01 51.34 129.02 51 128 C50.34 128 49.68 128 49 128 C49.33 124.04 49.66 120.08 50 116 C50.99 116 51.98 116 53 116 C53.639375 115.360625 54.27875 114.72125 54.9375 114.0625 C57.06074946 111.93925054 58.09456975 111.41506146 61 111 C61 109.68 61 108.36 61 107 C61.99 107 62.98 107 64 107 C64 106.34 64 105.68 64 105 C64.99 105 65.98 105 67 105 C67.91692961 102.24921116 68.10886083 100.64051087 68.0625 97.8125 C68.041875 96.554375 68.02125 95.29625 68 94 C64.00097233 93.4920154 60.00064616 92.99506324 56 92.5 C54.87464844 92.35691406 53.74929687 92.21382813 52.58984375 92.06640625 C46.676703 91.34023107 40.95736399 90.82478341 35 91 Z M39 117 C38.67 118.98 38.34 120.96 38 123 C38.66 122.67 39.32 122.34 40 122 C40 120.35 40 118.7 40 117 C39.67 117 39.34 117 39 117 Z M38 148 C38 148.66 38 149.32 38 150 C38.66 149.67 39.32 149.34 40 149 C39.34 148.67 38.68 148.34 38 148 Z M44 149 C44 149.66 44 150.32 44 151 C44.66 151 45.32 151 46 151 C46 150.34 46 149.68 46 149 C45.34 149 44.68 149 44 149 Z M28 153 C28 153.66 28 154.32 28 155 C31.81129968 155.50943785 35.62419614 156.0058065 39.4375 156.5 C41.04141602 156.71462891 41.04141602 156.71462891 42.67773438 156.93359375 C48.84543049 157.7257749 54.7822041 158.15691598 61 158 C61 157.67 61 157.34 61 157 C50.11 155.68 39.22 154.36 28 153 Z " fill="#FEFEFE" transform="translate(88,14)"/>
<path d="M0 0 C8.6625 -0.0928125 8.6625 -0.0928125 17.5 -0.1875 C20.20993164 -0.22846802 20.20993164 -0.22846802 22.97460938 -0.27026367 C24.43098282 -0.27903796 25.88736371 -0.28667966 27.34375 -0.29296875 C28.08012695 -0.30831665 28.81650391 -0.32366455 29.57519531 -0.33947754 C35.28859076 -0.34231532 41.17836129 0.44959875 45.56750488 4.41682434 C49.67590352 9.1645177 50.39720875 12.84326444 50 19 C49.16190092 22.06490883 48.1307825 25.03169593 47 28 C47.639375 28.598125 48.27875 29.19625 48.9375 29.8125 C52.52773056 33.62032029 52.28006592 37.45830894 52.21484375 42.4296875 C51.80386635 47.34647164 50.29672414 50.70327586 46.75 54.25 C40.41188015 58.28334899 35.61017044 59.4415536 28.22265625 59.29296875 C27.50235229 59.28994751 26.78204834 59.28692627 26.03991699 59.28381348 C23.38062967 59.26826209 20.72154857 59.22637934 18.0625 59.1875 C12.101875 59.125625 6.14125 59.06375 0 59 C0 39.53 0 20.06 0 0 Z M18 16 C18 17.98 18 19.96 18 22 C19.41623216 22.05447047 20.83308191 22.09300508 22.25 22.125 C23.43335938 22.15980469 23.43335938 22.15980469 24.640625 22.1953125 C27.20731941 21.9828378 28.7916067 21.28654105 31 20 C30.34 18.68 29.68 17.36 29 16 C25.37 16 21.74 16 18 16 Z M18 37 C18 38.98 18 40.96 18 43 C22.29 43 26.58 43 31 43 C31.33 41.35 31.66 39.7 32 38 C29.23547967 36.61773984 26.9538637 36.90474613 23.875 36.9375 C22.77929688 36.94652344 21.68359375 36.95554688 20.5546875 36.96484375 C19.29011719 36.98224609 19.29011719 36.98224609 18 37 Z " fill="#FFFFFF" transform="translate(0,35)"/>
<path d="M0 0 C0.74886475 0.00523682 1.49772949 0.01047363 2.26928711 0.01586914 C3.36188843 0.01961548 3.36188843 0.01961548 4.4765625 0.0234375 C5.40718506 0.0325415 6.33780762 0.04164551 7.29663086 0.05102539 C11.72069336 0.08196289 11.72069336 0.08196289 16.23413086 0.11352539 C16.23413086 7.37352539 16.23413086 14.63352539 16.23413086 22.11352539 C22.50413086 22.11352539 28.77413086 22.11352539 35.23413086 22.11352539 C35.23413086 14.85352539 35.23413086 7.59352539 35.23413086 0.11352539 C41.17413086 0.11352539 47.11413086 0.11352539 53.23413086 0.11352539 C53.23413086 19.91352539 53.23413086 39.71352539 53.23413086 60.11352539 C47.29413086 60.11352539 41.35413086 60.11352539 35.23413086 60.11352539 C35.23413086 52.85352539 35.23413086 45.59352539 35.23413086 38.11352539 C28.96413086 38.11352539 22.69413086 38.11352539 16.23413086 38.11352539 C16.23413086 45.37352539 16.23413086 52.63352539 16.23413086 60.11352539 C13.28475586 60.13415039 10.33538086 60.15477539 7.29663086 60.17602539 C6.3660083 60.18512939 5.43538574 60.1942334 4.4765625 60.20361328 C3.74816162 60.20611084 3.01976074 60.2086084 2.26928711 60.21118164 C1.52042236 60.21641846 0.77155762 60.22165527 0 60.22705078 C-1.76586914 60.11352539 -1.76586914 60.11352539 -2.76586914 59.11352539 C-2.86486475 57.30843166 -2.89386065 55.49945611 -2.89526367 53.69165039 C-2.89841583 52.53375 -2.90156799 51.37584961 -2.90481567 50.18286133 C-2.90279144 48.92248047 -2.90076721 47.66209961 -2.89868164 46.36352539 C-2.90011673 44.43814941 -2.90011673 44.43814941 -2.90158081 42.47387695 C-2.90305745 39.75348715 -2.90090433 37.03313014 -2.89624023 34.31274414 C-2.89054295 30.8186787 -2.89382213 27.32469006 -2.8998127 23.83062744 C-2.90428669 20.50825386 -2.90115799 17.18590116 -2.89868164 13.86352539 C-2.90070587 12.60314453 -2.9027301 11.34276367 -2.90481567 10.04418945 C-2.90166351 8.88628906 -2.89851135 7.72838867 -2.89526367 6.53540039 C-2.89407028 4.99770996 -2.89407028 4.99770996 -2.89285278 3.42895508 C-2.71437095 0.17450332 -2.71437095 0.17450332 0 0 Z " fill="#FFFFFF" transform="translate(36.765869140625,101.886474609375)"/>
<path d="M0 0 C-0.58107632 3.7602985 -1.65199496 6.53035032 -3.5625 9.8125 C-4.01753906 10.60269531 -4.47257812 11.39289062 -4.94140625 12.20703125 C-5.46541016 13.09455078 -5.46541016 13.09455078 -6 14 C-9.9218909 13.47001474 -13.54204416 12.53473291 -17.3125 11.375 C-22.64056506 9.86416511 -26.57786886 10.02223865 -32 11 C-32 11.66 -32 12.32 -32 13 C-31.36497559 13.16081055 -30.72995117 13.32162109 -30.07568359 13.48730469 C-27.17228196 14.22970284 -24.27375521 14.98967077 -21.375 15.75 C-20.37597656 16.00265625 -19.37695312 16.2553125 -18.34765625 16.515625 C-10.32827382 18.63996472 -4.87720137 20.95515358 0 28 C1.71728565 33.15185695 1.4380073 37.50562216 -0.0625 42.625 C-3.67320302 48.91461171 -8.99484364 52.95371765 -16 55 C-19.40562753 55.43877055 -22.75699153 55.47577797 -26.1875 55.4375 C-27.11570557 55.43137695 -28.04391113 55.42525391 -29.00024414 55.41894531 C-38.76385939 55.19733554 -47.20769238 53.0606837 -55 47 C-52.64593858 42.0664883 -50.13615289 37.48021842 -47 33 C-42.85326256 33.60981433 -39.71444984 35.10325966 -36 37 C-32.56560166 38.12983475 -29.34808056 38.10160957 -25.75 38.0625 C-24.13351563 38.04896484 -24.13351563 38.04896484 -22.484375 38.03515625 C-21.66453125 38.02355469 -20.8446875 38.01195312 -20 38 C-19.67 37.01 -19.34 36.02 -19 35 C-20.12277344 34.75765625 -21.24554688 34.5153125 -22.40234375 34.265625 C-43.72690772 29.54588343 -43.72690772 29.54588343 -51 21 C-52.93795159 15.18614524 -53.02055692 9.07891224 -50.3125 3.5625 C-37.79553641 -10.30764885 -15.11351491 -10.07567661 0 0 Z " fill="#FFFFFF" transform="translate(183,40)"/>
<path d="M0 0 C5.99221077 4.40190263 11.02952502 8.68109295 13 16 C13.03371179 17.66632569 13.0396713 19.33380554 13 21 C11.12612523 21.3396019 9.25083303 21.67138691 7.375 22 C6.33085937 22.185625 5.28671875 22.37125 4.2109375 22.5625 C1.09425135 22.98715797 -1.85930812 23.07545206 -5 23 C-5.61875 21.6078125 -5.61875 21.6078125 -6.25 20.1875 C-8.38224137 16.28171095 -8.38224137 16.28171095 -12 14 C-16.07174885 13.48287451 -16.07174885 13.48287451 -20 14 C-23.21954645 16.53453657 -24.70432435 18.11297305 -26 22 C-26.48656771 28.48445049 -26.9143045 34.49097885 -23 40 C-18.98936034 42.67375977 -15.714982 42.82035715 -11 42 C-7.56698142 39.37045386 -5.82852649 36.83744573 -4 33 C-1.37440156 33.3080144 1.25039806 33.62120182 3.875 33.9375 C4.62136719 34.02451172 5.36773437 34.11152344 6.13671875 34.20117188 C11.7734375 34.88671875 11.7734375 34.88671875 14 36 C13.68664101 42.11050029 10.8935483 46.46563854 7 51 C-1.9805545 58.5532878 -11.46030469 60.0823375 -22.88623047 59.28564453 C-30.49642708 58.25723958 -37.06851658 53.90548874 -41.81640625 48.00390625 C-45.78668638 41.28194683 -46.55181626 35.92714316 -46.5 28.1875 C-46.49427979 27.20716797 -46.48855957 26.22683594 -46.48266602 25.21679688 C-46.27958632 17.02796701 -44.98804537 11.29410466 -39.3203125 5.19140625 C-29.38493416 -4.01537768 -12.06854033 -6.90564492 0 0 Z " fill="#FFFFFF" transform="translate(209,104)"/>
<path d="M0 0 C1.32 0 2.64 0 4 0 C4.5566692 3.89126859 5.10771263 7.78329284 5.65405273 11.67602539 C5.92996458 13.6340251 6.21004124 15.59143649 6.49023438 17.54882812 C7.62945035 25.68904411 8.47963839 33.79670343 9 42 C8.01 42.495 8.01 42.495 7 43 C6.67 43.99 6.34 44.98 6 46 C4.2430153 48.36363089 3.17179161 48.95364353 0.29296875 49.73046875 C-0.73183594 49.88128906 -1.75664062 50.03210938 -2.8125 50.1875 C-3.82957031 50.34605469 -4.84664063 50.50460938 -5.89453125 50.66796875 C-8.95679165 50.99538024 -11.92296793 51.05979285 -15 51 C-15 53.31 -15 55.62 -15 58 C-16.32 58 -17.64 58 -19 58 C-19 57.34 -19 56.68 -19 56 C-20.65 55.67 -22.3 55.34 -24 55 C-24 54.01 -24 53.02 -24 52 C-24.99 52 -25.98 52 -27 52 C-27 50.68 -27 49.36 -27 48 C-26.01 48 -25.02 48 -24 48 C-23.67 46.68 -23.34 45.36 -23 44 C-22.34 44 -21.68 44 -21 44 C-21 43.01 -21 42.02 -21 41 C-19.35 41.33 -17.7 41.66 -16 42 C-15.67 43.32 -15.34 44.64 -15 46 C-12.85270859 45.71926927 -10.70716807 45.42511501 -8.5625 45.125 C-7.36753906 44.96257812 -6.17257812 44.80015625 -4.94140625 44.6328125 C-3.97074219 44.42398438 -3.00007813 44.21515625 -2 44 C-1.67 43.34 -1.34 42.68 -1 42 C-0.34 42 0.32 42 1 42 C1.33 40.68 1.66 39.36 2 38 C2.66 38 3.32 38 4 38 C3.67 37.34 3.34 36.68 3 36 C2.34288909 31.85191006 1.91451905 27.67220487 1.4375 23.5 C1.29892578 22.35273437 1.16035156 21.20546875 1.01757812 20.0234375 C0.24194552 13.31402444 -0.1992597 6.75365239 0 0 Z " fill="#FFFFFF" transform="translate(266,29)"/>
<path d="M0 0 C3.25654656 -0.19736646 5.50701079 0.14608785 8.6875 1.0625 C11.84539905 2.35808558 11.84539905 2.35808558 14 1 C14.99 1.66 15.98 2.32 17 3 C16.67 3.99 16.34 4.98 16 6 C15.01 6 14.02 6 13 6 C13 7.32 13 8.64 13 10 C12.01 10 11.02 10 10 10 C10 10.66 10 11.32 10 12 C8.35 12 6.7 12 5 12 C5 11.01 5 10.02 5 9 C4.34 9 3.68 9 3 9 C3 7.68 3 6.36 3 5 C2.01 4.67 1.02 4.34 0 4 C0 2.68 0 1.36 0 0 Z M7 5 C7 5.99 7 6.98 7 8 C7.66 8 8.32 8 9 8 C9 7.01 9 6.02 9 5 C8.34 5 7.68 5 7 5 Z " fill="#FFFFFF" transform="translate(130,116)"/>
<path d="M0 0 C1.65 0.33 3.3 0.66 5 1 C4.67 2.32 4.34 3.64 4 5 C3.01 5 2.02 5 1 5 C0.67 5.99 0.34 6.98 0 8 C-0.66 8 -1.32 8 -2 8 C-2.33 8.99 -2.66 9.98 -3 11 C-4.32 11 -5.64 11 -7 11 C-7 9.35 -7 7.7 -7 6 C-6.01 6 -5.02 6 -4 6 C-3.67 5.01 -3.34 4.02 -3 3 C-2.34 3 -1.68 3 -1 3 C-0.67 2.01 -0.34 1.02 0 0 Z " fill="#FFFFFF" transform="translate(85,24)"/>
<path d="M0 0 C1.65 0.33 3.3 0.66 5 1 C4.67 2.32 4.34 3.64 4 5 C3.01 5 2.02 5 1 5 C1 5.66 1 6.32 1 7 C0.01 7 -0.98 7 -2 7 C-2 8.32 -2 9.64 -2 11 C-3.32 11 -4.64 11 -6 11 C-6.36458333 6.50347222 -6.36458333 6.50347222 -4.6875 4.1875 C-3 3 -3 3 0 3 C0 2.01 0 1.02 0 0 Z " fill="#FEFEFE" transform="translate(120,7)"/>
<path d="M0 0 C1.32 0.33 2.64 0.66 4 1 C4 1.66 4 2.32 4 3 C5.32 3.33 6.64 3.66 8 4 C8 4.66 8 5.32 8 6 C8.66 6 9.32 6 10 6 C10 7.65 10 9.3 10 11 C8.68 11 7.36 11 6 11 C6 9.68 6 8.36 6 7 C4.68 7 3.36 7 2 7 C2 6.34 2 5.68 2 5 C1.34 5 0.68 5 0 5 C0 3.35 0 1.7 0 0 Z " fill="#FEFEFE" transform="translate(64,7)"/>
<path d="M0 0 C1.32 0 2.64 0 4 0 C4 1.32 4 2.64 4 4 C5.32 4 6.64 4 8 4 C8 4.66 8 5.32 8 6 C8.66 6 9.32 6 10 6 C10.33 6.99 10.66 7.98 11 9 C9.35 9.33 7.7 9.66 6 10 C6 9.34 6 8.68 6 8 C4.68 7.67 3.36 7.34 2 7 C2 6.34 2 5.68 2 5 C1.34 5 0.68 5 0 5 C0 3.35 0 1.7 0 0 Z " fill="#FFFFFF" transform="translate(115,56)"/>
<path d="M0 0 C1.65 0 3.3 0 5 0 C5 3.63 5 7.26 5 11 C3.35 10.67 1.7 10.34 0 10 C0 6.7 0 3.4 0 0 Z " fill="#FFFFFF" transform="translate(90,0)"/>
<path d="M0 0 C3.63 0 7.26 0 11 0 C11 1.32 11 2.64 11 4 C7.37 4 3.74 4 0 4 C0 2.68 0 1.36 0 0 Z " fill="#FFFFFF" transform="translate(120,36)"/>
<path d="M0 0 C3.3 0 6.6 0 10 0 C10 1.32 10 2.64 10 4 C6.7 4 3.4 4 0 4 C0 2.68 0 1.36 0 0 Z " fill="#FFFFFF" transform="translate(56,36)"/>
<path d="M0 0 C1.65 0 3.3 0 5 0 C5 1.32 5 2.64 5 4 C3.35 4 1.7 4 0 4 C0 2.68 0 1.36 0 0 Z " fill="#FFFFFF" transform="translate(132,149)"/>
</svg>
